<?xml version="1.0" encoding="UTF-8" standalone="no"?>
<svg
   xmlns:dc="http://purl.org/dc/elements/1.1/"
   xmlns:cc="http://creativecommons.org/ns#"
   xmlns:rdf="http://www.w3.org/1999/02/22-rdf-syntax-ns#"
   xmlns:svg="http://www.w3.org/2000/svg"
   xmlns="http://www.w3.org/2000/svg"
   xmlns:xlink="http://www.w3.org/1999/xlink"
   xmlns:sodipodi="http://sodipodi.sourceforge.net/DTD/sodipodi-0.dtd"
   xmlns:inkscape="http://www.inkscape.org/namespaces/inkscape"
   version="1.1"
   preserveAspectRatio="xMidYMid meet"
   viewBox="0 0 640 640"
   width="640"
   height="640"
   id="svg48"
   sodipodi:docname="yogesh_logo.svg"
   inkscape:version="0.92.2 2405546, 2018-03-11">
  <metadata
     id="metadata52">
    <rdf:RDF>
      <cc:Work
         rdf:about="">
        <dc:format>image/svg+xml</dc:format>
        <dc:type
           rdf:resource="http://purl.org/dc/dcmitype/StillImage" />
      </cc:Work>
    </rdf:RDF>
  </metadata>
  <sodipodi:namedview
     pagecolor="#ffffff"
     bordercolor="#666666"
     borderopacity="1"
     objecttolerance="10"
     gridtolerance="10"
     guidetolerance="10"
     inkscape:pageopacity="0"
     inkscape:pageshadow="2"
     inkscape:window-width="1920"
     inkscape:window-height="1035"
     id="namedview50"
     showgrid="false"
     inkscape:snap-grids="true"
     inkscape:zoom="1.0429825"
     inkscape:cx="334.59594"
     inkscape:cy="316.19985"
     inkscape:window-x="0"
     inkscape:window-y="22"
     inkscape:window-maximized="1"
     inkscape:current-layer="svg48" />
  <defs
     id="defs14">
    <path
       d="M258.68 400.06C326.36 256.34 368.66 166.52 385.58 130.59C395.51 109.5 417.6 96.91 440.8 99.12C442.03 99.24 445.09 99.53 450 100C381.49 243.4 338.68 333.03 321.55 368.88C311.35 390.23 288.9 402.94 265.34 400.69C264.45 400.61 262.23 400.4 258.68 400.06Z"
       id="e3cv9d7yG4" />
    <linearGradient
       id="gradientaI9GoXRI"
       gradientUnits="userSpaceOnUse"
       x1="416.82"
       y1="129.38"
       x2="279.4"
       y2="388.82">
      <stop
         style="stop-color: #9c00ff;stop-opacity: 1"
         offset="0%"
         id="stop3" />
      <stop
         style="stop-color: #fb001d;stop-opacity: 1"
         offset="100%"
         id="stop5" />
    </linearGradient>
    <path
       d="M370.43 270.62C326.7 195.55 299.36 148.63 288.43 129.86C277.85 111.7 258.41 100.52 237.39 100.52C234.9 100.52 228.67 100.52 218.71 100.52C262.25 176.91 289.45 224.65 300.34 243.74C309.81 260.36 327.46 270.62 346.59 270.62C349.77 270.62 357.72 270.62 370.43 270.62Z"
       id="b19YbXKlVT" />
    <linearGradient
       id="gradientbraalj4CZ"
       gradientUnits="userSpaceOnUse"
       x1="246.28"
       y1="114.3"
       x2="352.12"
       y2="267.36">
      <stop
         style="stop-color: #ff0000;stop-opacity: 1"
         offset="0%"
         id="stop9" />
      <stop
         style="stop-color: #ffdf05;stop-opacity: 1"
         offset="100%"
         id="stop11" />
    </linearGradient>
  </defs>
  <g
     id="g46"
     transform="matrix(1.8952756,0,0,1.8952756,-317.5719,-157.09801)">
    <g
       id="g44">
      <g
         id="g38">
        <g
           id="g34">
          <filter
             id="shadow16376917"
             x="250.67999"
             y="90.870003"
             width="207.32001"
             height="318.07001"
             filterUnits="userSpaceOnUse"
             primitiveUnits="userSpaceOnUse">
            <feFlood
               id="feFlood16" />
            <feComposite
               in2="SourceAlpha"
               operator="in"
               id="feComposite18" />
            <feGaussianBlur
               stdDeviation="1"
               id="feGaussianBlur20" />
            <feOffset
               dx="0"
               dy="0"
               result="afterOffset"
               id="feOffset22" />
            <feFlood
               flood-color="#000000"
               flood-opacity="0.5"
               id="feFlood24" />
            <feComposite
               in2="afterOffset"
               operator="in"
               id="feComposite26" />
            <feMorphology
               operator="dilate"
               radius="1"
               id="feMorphology28" />
            <feComposite
               in2="SourceAlpha"
               operator="out"
               id="feComposite30" />
          </filter>
          <path
             d="m 258.68,400.06 c 67.68,-143.72 109.98,-233.54 126.9,-269.47 9.93,-21.09 32.02,-33.68 55.22,-31.47 1.23,0.12 4.29,0.41 9.2,0.88 -68.51,143.4 -111.32,233.03 -128.45,268.88 -10.2,21.35 -32.65,34.06 -56.21,31.81 -0.89,-0.08 -3.11,-0.29 -6.66,-0.63 z"
             id="bh10kaNaL"
             inkscape:connector-curvature="0"
             style="fill:#ffffff;fill-opacity:1;filter:url(#shadow16376917)" />
        </g>
        <use
           xlink:href="#e3cv9d7yG4"
           id="use36"
           style="opacity:1;fill:url(#gradientaI9GoXRI)"
           x="0"
           y="0"
           width="100%"
           height="100%" />
      </g>
      <g
         id="g42">
        <use
           xlink:href="#b19YbXKlVT"
           id="use40"
           style="opacity:1;fill:url(#gradientbraalj4CZ)"
           x="0"
           y="0"
           width="100%"
           height="100%" />
      </g>
    </g>
  </g>
</svg>
